<svg width="27" height="26" viewBox="0 0 27 26" fill="none" xmlns="http://www.w3.org/2000/svg">
<path d="M24.4919 4.08243V6.76275H0.817078V4.08243C0.817078 3.11007 1.60342 2.32373 2.57578 2.32373H22.7332C23.7055 2.32373 24.4919 3.11007 24.4919 4.08243ZM11.5976 11.4132H13.7114V13.527H11.5976V11.4132Z" fill="black"/>
<path d="M4.83334 11.4132V13.527H6.94716V11.4132H4.83334ZM4.83334 11.4132V13.527H6.94716V11.4132H4.83334ZM0.817078 8.03106V22.5488C0.817078 23.5211 1.60342 24.3075 2.57578 24.3075H15.7576C15.1099 23.2985 14.7665 22.1243 14.7683 20.9254C14.7683 17.4249 17.6093 14.5839 21.1098 14.5839C22.3527 14.5839 23.5195 14.9475 24.4919 15.5732V8.03106H0.817078ZM8.21545 20.9254C8.21545 21.272 7.92797 21.5595 7.58131 21.5595H4.19919C3.85252 21.5595 3.56505 21.272 3.56505 20.9254V17.5432C3.56505 17.1966 3.85252 16.9091 4.19919 16.9091H7.58131C7.92797 16.9091 8.21545 17.1966 8.21545 17.5432V20.9254ZM8.21545 14.1611C8.21545 14.5078 7.92797 14.7953 7.58131 14.7953H4.19919C3.85252 14.7953 3.56505 14.5078 3.56505 14.1611V10.779C3.56505 10.4324 3.85252 10.1449 4.19919 10.1449H7.58131C7.92797 10.1449 8.21545 10.4324 8.21545 10.779V14.1611ZM14.9797 14.1611C14.9797 14.5078 14.6922 14.7953 14.3455 14.7953H10.9634C10.6168 14.7953 10.3293 14.5078 10.3293 14.1611V10.779C10.3293 10.4324 10.6168 10.1449 10.9634 10.1449H14.3455C14.6922 10.1449 14.9797 10.4324 14.9797 10.779V14.1611ZM4.83334 20.2912H6.94716V18.1774H4.83334V20.2912ZM4.83334 13.527H6.94716V11.4132H4.83334V13.527ZM12.6545 4.64894C12.4863 4.64894 12.325 4.58213 12.2061 4.4632C12.0871 4.34428 12.0203 4.18298 12.0203 4.0148V0.632681C12.0203 0.464495 12.0871 0.303198 12.2061 0.184272C12.325 0.0653468 12.4863 -0.00146484 12.6545 -0.00146484C12.8227 -0.00146484 12.984 0.0653468 13.1029 0.184272C13.2218 0.303198 13.2886 0.464495 13.2886 0.632681V4.0148C13.2886 4.18298 13.2218 4.34428 13.1029 4.4632C12.984 4.58213 12.8227 4.64894 12.6545 4.64894ZM4.19919 4.64894C4.03101 4.64894 3.86971 4.58213 3.75078 4.4632C3.63186 4.34428 3.56505 4.18298 3.56505 4.0148V0.632681C3.56505 0.464495 3.63186 0.303198 3.75078 0.184272C3.86971 0.0653468 4.03101 -0.00146484 4.19919 -0.00146484C4.36738 -0.00146484 4.52868 0.0653468 4.6476 0.184272C4.76653 0.303198 4.83334 0.464495 4.83334 0.632681V4.0148C4.83334 4.18298 4.76653 4.34428 4.6476 4.4632C4.52868 4.58213 4.36738 4.64894 4.19919 4.64894ZM21.1098 4.64894C20.9416 4.64894 20.7803 4.58213 20.6614 4.4632C20.5424 4.34428 20.4756 4.18298 20.4756 4.0148V0.632681C20.4756 0.464495 20.5424 0.303198 20.6614 0.184272C20.7803 0.0653468 20.9416 -0.00146484 21.1098 -0.00146484C21.2779 -0.00146484 21.4392 0.0653468 21.5582 0.184272C21.6771 0.303198 21.7439 0.464495 21.7439 0.632681V4.0148C21.7439 4.18298 21.6771 4.34428 21.5582 4.4632C21.4392 4.58213 21.2779 4.64894 21.1098 4.64894Z" fill="black"/>
<path d="M21.1097 15.8523C18.311 15.8523 16.0366 18.1268 16.0366 20.9255C16.0366 23.7242 18.311 25.9986 21.1097 25.9986C23.9084 25.9986 26.1829 23.7242 26.1829 20.9255C26.1829 18.1268 23.9084 15.8523 21.1097 15.8523ZM22.8008 21.5596H21.1097C20.7631 21.5596 20.4756 21.2721 20.4756 20.9255V18.3889C20.4756 18.0422 20.7631 17.7547 21.1097 17.7547C21.4564 17.7547 21.7439 18.0422 21.7439 18.3889V20.2913H22.8008C23.1475 20.2913 23.4349 20.5788 23.4349 20.9255C23.4349 21.2721 23.1475 21.5596 22.8008 21.5596Z" fill="black"/>
</svg>
