<svg width="32" height="29" viewBox="0 0 32 29" fill="none" xmlns="http://www.w3.org/2000/svg">
<path d="M23.5924 24.6671C23.6571 25.2521 23.5886 25.8441 23.3922 26.3989C23.1957 26.9536 22.8764 27.4568 22.4581 27.8708C22.0398 28.2848 21.5333 28.5989 20.9765 28.7895C20.4197 28.9801 19.827 29.0424 19.2427 28.9717H9.49377C8.9095 29.0424 8.3168 28.9801 7.76 28.7895C7.2032 28.5989 6.6967 28.2848 6.27839 27.8708C5.86007 27.4568 5.54075 26.9536 5.34432 26.3989C5.14789 25.8441 5.07943 25.2521 5.14405 24.6671C5.08374 23.7607 5.21794 22.852 5.53766 22.0017C5.85738 21.1515 6.35522 20.3795 6.99778 19.7374C7.64035 19.0954 8.41278 18.5981 9.26328 18.2791C10.1138 17.9601 11.0226 17.8266 11.929 17.8876H16.8075C17.7138 17.8266 18.6227 17.9601 19.4732 18.2791C20.3237 18.5981 21.0961 19.0954 21.7387 19.7374C22.3813 20.3795 22.8791 21.1515 23.1988 22.0017C23.5186 22.852 23.6528 23.7607 23.5924 24.6671ZM14.3792 15.3226C15.3259 15.3189 16.2504 15.0347 17.0357 14.5059C17.8211 13.9772 18.4322 13.2276 18.7919 12.3518C19.1516 11.476 19.2438 10.5133 19.0568 9.58514C18.8697 8.65702 18.4119 7.80512 17.7411 7.13698C17.0703 6.46884 16.2166 6.01443 15.2877 5.83111C14.3589 5.64779 13.3965 5.74378 12.5222 6.10696C11.6478 6.47015 10.9007 7.08424 10.3751 7.87171C9.84945 8.65919 9.56894 9.58474 9.56893 10.5315C9.57327 11.8042 10.0821 13.0232 10.9838 13.9213C11.8855 14.8194 13.1065 15.3234 14.3792 15.3226ZM23.6471 11.7942H21.447C21.3553 11.7947 21.2664 11.826 21.1946 11.883C21.1227 11.9399 21.0721 12.0194 21.0507 12.1085C20.7523 13.39 20.082 14.5548 19.1238 15.4566C19.0736 15.5099 19.0386 15.5756 19.0224 15.647C19.0062 15.7185 19.0094 15.7929 19.0318 15.8626C19.0541 15.9324 19.0947 15.9949 19.1493 16.0436C19.2039 16.0924 19.2707 16.1256 19.3425 16.1398C20.4143 16.3718 21.424 16.8309 22.3033 17.4863C23.1826 18.1417 23.9111 18.978 24.4397 19.9388C24.4721 20.013 24.5257 20.076 24.5938 20.1198C24.6619 20.1635 24.7414 20.1862 24.8223 20.1848H25.3963C25.844 20.2381 26.298 20.1893 26.7242 20.0422C27.1504 19.895 27.5377 19.6533 27.8572 19.3351C28.1767 19.017 28.42 18.6306 28.5689 18.205C28.7178 17.7795 28.7684 17.3257 28.717 16.8778C28.7626 16.1996 28.6628 15.5195 28.4243 14.883C28.1859 14.2465 27.8142 13.6682 27.3342 13.1869C26.8542 12.7057 26.277 12.3324 25.6411 12.0922C25.0052 11.8521 24.3254 11.7505 23.6471 11.7942ZM21.8979 3.0073C21.2514 3.00675 20.6164 3.17805 20.0578 3.50365C19.4993 3.82926 19.0374 4.29748 18.7193 4.86034C18.6752 4.94444 18.6649 5.04223 18.6906 5.13365C18.7104 5.21895 18.7616 5.29363 18.8341 5.34273C19.5162 5.91443 20.0775 6.61619 20.4856 7.40709C20.8936 8.198 21.14 9.06222 21.2106 9.94937C21.2154 10.0379 21.2535 10.1213 21.3171 10.183C21.3933 10.2566 21.4942 10.299 21.6 10.3019C21.697 10.3101 21.7968 10.3156 21.8979 10.3156C22.8674 10.3156 23.7972 9.93047 24.4828 9.24493C25.1683 8.55938 25.5534 7.62959 25.5534 6.66009C25.5534 5.69058 25.1683 4.76079 24.4828 4.07525C23.7972 3.3897 22.8674 3.00457 21.8979 3.00457V3.0073ZM0.0194918 16.8778C-0.03193 17.3257 0.018711 17.7795 0.167619 18.205C0.316526 18.6306 0.559837 19.017 0.879312 19.3351C1.19879 19.6533 1.58614 19.895 2.01233 20.0422C2.43851 20.1893 2.89248 20.2381 3.3402 20.1848H3.91415C3.99509 20.1862 4.07462 20.1635 4.14271 20.1198C4.21081 20.076 4.26442 20.013 4.29679 19.9388C4.82539 18.978 5.55391 18.1417 6.43322 17.4863C7.31253 16.8309 8.32216 16.3718 9.39401 16.1398C9.46584 16.1256 9.53254 16.0924 9.58718 16.0436C9.64183 15.9949 9.68242 15.9324 9.70474 15.8626C9.72705 15.7929 9.73028 15.7185 9.71409 15.647C9.6979 15.5756 9.66287 15.5099 9.61266 15.4566C8.65453 14.5548 7.98419 13.39 7.68583 12.1085C7.66443 12.0194 7.61377 11.9399 7.54193 11.883C7.47009 11.826 7.38122 11.7947 7.28953 11.7942H5.08938C4.41108 11.7505 3.73125 11.8521 3.09538 12.0922C2.45951 12.3324 1.88227 12.7057 1.40229 13.1869C0.922303 13.6682 0.55064 14.2465 0.312166 14.883C0.0736927 15.5195 -0.026091 16.1996 0.0194918 16.8778ZM3.18988 6.65599C3.18915 7.62516 3.5729 8.55505 4.25693 9.24163C4.94095 9.92822 5.8694 10.3154 6.83857 10.3183C6.93969 10.3183 7.03945 10.3183 7.13647 10.3047C7.24231 10.3018 7.34323 10.2594 7.41935 10.1858C7.483 10.1241 7.52105 10.0406 7.52594 9.9521C7.59648 9.06496 7.84293 8.20073 8.25094 7.40983C8.65895 6.61892 9.22033 5.91716 9.90237 5.34547C9.97485 5.29636 10.0261 5.22168 10.0459 5.13639C10.0716 5.04496 10.0613 4.94717 10.0172 4.86308C9.62158 4.15854 9.00342 3.60517 8.25956 3.2897C7.51569 2.97423 6.68818 2.9145 5.90672 3.11987C5.12527 3.32524 4.43404 3.78409 3.94139 4.42452C3.44873 5.06494 3.1825 5.85073 3.18442 6.65872L3.18988 6.65599Z" fill="black"/>
<circle cx="29" cy="3" r="3" fill="#87E64B"/>
</svg>
