<svg width="29" height="26" viewBox="0 0 29 26" fill="none" xmlns="http://www.w3.org/2000/svg">
<path d="M23.5924 21.6671C23.6571 22.2521 23.5886 22.8441 23.3922 23.3989C23.1957 23.9536 22.8764 24.4568 22.4581 24.8708C22.0398 25.2848 21.5333 25.5989 20.9765 25.7895C20.4197 25.9801 19.827 26.0424 19.2427 25.9717H9.49377C8.9095 26.0424 8.3168 25.9801 7.76 25.7895C7.2032 25.5989 6.6967 25.2848 6.27839 24.8708C5.86007 24.4568 5.54075 23.9536 5.34432 23.3989C5.14789 22.8441 5.07943 22.2521 5.14405 21.6671C5.08373 20.7607 5.21794 19.852 5.53766 19.0017C5.85738 18.1515 6.35522 17.3795 6.99778 16.7374C7.64035 16.0954 8.41278 15.5981 9.26328 15.2791C10.1138 14.9601 11.0226 14.8266 11.929 14.8876H16.8075C17.7138 14.8266 18.6227 14.9601 19.4732 15.2791C20.3237 15.5981 21.0961 16.0954 21.7387 16.7374C22.3813 17.3795 22.8791 18.1515 23.1988 19.0017C23.5186 19.852 23.6528 20.7607 23.5924 21.6671ZM14.3792 12.3226C15.3259 12.3189 16.2504 12.0346 17.0357 11.5059C17.8211 10.9772 18.4322 10.2276 18.7919 9.35178C19.1516 8.47599 19.2438 7.51327 19.0568 6.58514C18.8697 5.65702 18.4119 4.80512 17.7411 4.13698C17.0703 3.46884 16.2166 3.01443 15.2877 2.83111C14.3589 2.64779 13.3965 2.74378 12.5222 3.10696C11.6478 3.47015 10.9007 4.08424 10.3751 4.87171C9.84945 5.65919 9.56894 6.58474 9.56893 7.53152C9.57327 8.80418 10.0821 10.0232 10.9838 10.9213C11.8855 11.8194 13.1065 12.3234 14.3792 12.3226ZM23.6471 8.79421H21.447C21.3553 8.79473 21.2664 8.82598 21.1946 8.88296C21.1227 8.93994 21.0721 9.01935 21.0507 9.10851C20.7523 10.39 20.082 11.5548 19.1238 12.4566C19.0736 12.5099 19.0386 12.5756 19.0224 12.647C19.0062 12.7185 19.0094 12.7929 19.0318 12.8626C19.0541 12.9324 19.0947 12.9949 19.1493 13.0436C19.2039 13.0924 19.2707 13.1256 19.3425 13.1398C20.4143 13.3718 21.424 13.8309 22.3033 14.4863C23.1826 15.1417 23.9111 15.978 24.4397 16.9388C24.4721 17.013 24.5257 17.076 24.5938 17.1198C24.6619 17.1635 24.7414 17.1862 24.8223 17.1848H25.3963C25.844 17.2381 26.298 17.1893 26.7242 17.0422C27.1504 16.895 27.5377 16.6533 27.8572 16.3351C28.1767 16.017 28.42 15.6306 28.5689 15.205C28.7178 14.7795 28.7684 14.3257 28.717 13.8778C28.7626 13.1996 28.6628 12.5195 28.4243 11.883C28.1859 11.2465 27.8142 10.6682 27.3342 10.1869C26.8542 9.70565 26.277 9.33244 25.6411 9.09225C25.0052 8.85206 24.3254 8.75045 23.6471 8.79421ZM21.8979 0.00730419C21.2514 0.00674773 20.6164 0.178046 20.0578 0.503653C19.4993 0.829261 19.0374 1.29748 18.7193 1.86034C18.6752 1.94444 18.6649 2.04223 18.6906 2.13365C18.7104 2.21895 18.7616 2.29363 18.8341 2.34273C19.5162 2.91443 20.0775 3.61619 20.4856 4.40709C20.8936 5.198 21.14 6.06222 21.2106 6.94937C21.2154 7.03789 21.2535 7.12133 21.3171 7.18305C21.3933 7.25663 21.4942 7.29905 21.6 7.30194C21.697 7.31014 21.7968 7.3156 21.8979 7.3156C22.8674 7.3156 23.7972 6.93047 24.4828 6.24493C25.1683 5.55938 25.5534 4.62959 25.5534 3.66009C25.5534 2.69058 25.1683 1.76079 24.4828 1.07525C23.7972 0.389705 22.8674 0.00457096 21.8979 0.00457096V0.00730419ZM0.0194918 13.8778C-0.03193 14.3257 0.018711 14.7795 0.167619 15.205C0.316526 15.6306 0.559837 16.017 0.879312 16.3351C1.19879 16.6533 1.58614 16.895 2.01233 17.0422C2.43851 17.1893 2.89248 17.2381 3.3402 17.1848H3.91415C3.99509 17.1862 4.07462 17.1635 4.14271 17.1198C4.21081 17.076 4.26442 17.013 4.29679 16.9388C4.82539 15.978 5.55391 15.1417 6.43322 14.4863C7.31253 13.8309 8.32216 13.3718 9.39401 13.1398C9.46584 13.1256 9.53254 13.0924 9.58718 13.0436C9.64183 12.9949 9.68242 12.9324 9.70474 12.8626C9.72705 12.7929 9.73028 12.7185 9.71409 12.647C9.6979 12.5756 9.66288 12.5099 9.61266 12.4566C8.65453 11.5548 7.98419 10.39 7.68583 9.10851C7.66443 9.01935 7.61377 8.93994 7.54193 8.88296C7.47009 8.82598 7.38122 8.79473 7.28953 8.79421H5.08939C4.41108 8.75045 3.73125 8.85206 3.09538 9.09225C2.45951 9.33244 1.88227 9.70565 1.40229 10.1869C0.922303 10.6682 0.55064 11.2465 0.312166 11.883C0.0736927 12.5195 -0.026091 13.1996 0.0194918 13.8778ZM3.18988 3.65599C3.18915 4.62516 3.5729 5.55505 4.25693 6.24163C4.94095 6.92822 5.8694 7.31544 6.83857 7.31834C6.93969 7.31834 7.03945 7.31834 7.13647 7.30467C7.24231 7.30178 7.34323 7.25937 7.41935 7.18578C7.483 7.12406 7.52105 7.04063 7.52594 6.9521C7.59648 6.06496 7.84293 5.20073 8.25094 4.40983C8.65895 3.61892 9.22033 2.91716 9.90237 2.34547C9.97485 2.29636 10.0261 2.22168 10.0459 2.13639C10.0716 2.04496 10.0613 1.94717 10.0172 1.86308C9.62158 1.15854 9.00342 0.605169 8.25956 0.289702C7.5157 -0.0257653 6.68818 -0.0854966 5.90672 0.11987C5.12527 0.325237 4.43404 0.784094 3.94139 1.42452C3.44873 2.06494 3.1825 2.85073 3.18442 3.65872L3.18988 3.65599Z" fill="black"/>
<circle cx="25.5" cy="3.5" r="3.5" fill="#87E64B"/>
</svg>
