<svg width="29" height="26" viewBox="0 0 29 26" fill="none" xmlns="http://www.w3.org/2000/svg">
<path d="M23.7242 21.6657C23.7888 22.2507 23.7203 22.8427 23.5239 23.3975C23.3275 23.9523 23.0082 24.4555 22.5898 24.8695C22.1715 25.2835 21.665 25.5975 21.1082 25.7882C20.5514 25.9788 19.9587 26.0411 19.3745 25.9704H9.62551C9.04124 26.0411 8.44855 25.9788 7.89175 25.7882C7.33495 25.5975 6.82845 25.2835 6.41013 24.8695C5.99181 24.4555 5.6725 23.9523 5.47607 23.3975C5.27964 22.8427 5.21117 22.2507 5.27579 21.6657C5.21548 20.7594 5.34968 19.8506 5.6694 19.0004C5.98912 18.1501 6.48696 17.3781 7.12953 16.7361C7.77209 16.094 8.54453 15.5968 9.39502 15.2778C10.2455 14.9587 11.1544 14.8253 12.0607 14.8863H16.9393C17.8456 14.8253 18.7545 14.9587 19.605 15.2778C20.4555 15.5968 21.2279 16.094 21.8705 16.7361C22.513 17.3781 23.0109 18.1501 23.3306 19.0004C23.6503 19.8506 23.7845 20.7594 23.7242 21.6657ZM14.5109 12.3213C15.4577 12.3175 16.3821 12.0333 17.1675 11.5046C17.9529 10.9758 18.564 10.2262 18.9237 9.35044C19.2834 8.47465 19.3755 7.51192 19.1885 6.5838C19.0015 5.65568 18.5437 4.80377 17.8729 4.13564C17.2021 3.4675 16.3483 3.01309 15.4195 2.82977C14.4906 2.64644 13.5283 2.74244 12.6539 3.10562C11.7796 3.4688 11.0324 4.0829 10.5068 4.87037C9.9812 5.65785 9.70068 6.5834 9.70067 7.53017C9.70501 8.80284 10.2138 10.0219 11.1155 10.92C12.0172 11.8181 13.2383 12.322 14.5109 12.3213ZM23.7789 8.79286H21.5787C21.487 8.79339 21.3981 8.82464 21.3263 8.88162C21.2545 8.93859 21.2038 9.01801 21.1824 9.10717C20.884 10.3887 20.2137 11.5534 19.2556 12.4552C19.2054 12.5085 19.1703 12.5743 19.1541 12.6457C19.138 12.7171 19.1412 12.7916 19.1635 12.8613C19.1858 12.931 19.2264 12.9935 19.281 13.0423C19.3357 13.091 19.4024 13.1242 19.4742 13.1385C20.5461 13.3705 21.5557 13.8296 22.435 14.485C23.3143 15.1403 24.0429 15.9766 24.5714 16.9375C24.6038 17.0117 24.6574 17.0746 24.7255 17.1184C24.7936 17.1622 24.8731 17.1848 24.9541 17.1835H25.528C25.9757 17.2367 26.4297 17.188 26.8559 17.0408C27.2821 16.8937 27.6694 16.6519 27.9889 16.3338C28.3084 16.0156 28.5517 15.6293 28.7006 15.2037C28.8495 14.7781 28.9002 14.3244 28.8487 13.8764C28.8943 13.1982 28.7945 12.5181 28.5561 11.8816C28.3176 11.2451 27.9459 10.6669 27.4659 10.1856C26.986 9.70431 26.4087 9.33109 25.7729 9.09091C25.137 8.85072 24.4572 8.74911 23.7789 8.79286ZM22.0297 0.00596141C21.3832 0.00540496 20.7481 0.176703 20.1896 0.50231C19.6311 0.827918 19.1691 1.29613 18.8511 1.859C18.8069 1.94309 18.7967 2.04089 18.8224 2.13231C18.8421 2.21761 18.8934 2.29229 18.9659 2.34139C19.6479 2.91308 20.2093 3.61484 20.6173 4.40575C21.0253 5.19666 21.2718 6.06088 21.3423 6.94802C21.3472 7.03655 21.3852 7.11998 21.4489 7.1817C21.525 7.25529 21.6259 7.29771 21.7318 7.30059C21.8288 7.30879 21.9285 7.31426 22.0297 7.31426C22.9992 7.31426 23.929 6.92913 24.6145 6.24358C25.3001 5.55804 25.6852 4.62825 25.6852 3.65874C25.6852 2.68924 25.3001 1.75945 24.6145 1.0739C23.929 0.388362 22.9992 0.00322819 22.0297 0.00322819V0.00596141ZM0.151236 13.8764C0.0998144 14.3244 0.150455 14.7781 0.299363 15.2037C0.448271 15.6293 0.691582 16.0156 1.01106 16.3338C1.33053 16.6519 1.71788 16.8937 2.14407 17.0408C2.57026 17.188 3.02423 17.2367 3.47195 17.1835H4.0459C4.12684 17.1848 4.20637 17.1622 4.27446 17.1184C4.34255 17.0746 4.39616 17.0117 4.42853 16.9375C4.95713 15.9766 5.68566 15.1403 6.56496 14.485C7.44427 13.8296 8.45391 13.3705 9.52575 13.1385C9.59758 13.1242 9.66429 13.091 9.71893 13.0423C9.77357 12.9935 9.81416 12.931 9.83648 12.8613C9.8588 12.7916 9.86203 12.7171 9.84584 12.6457C9.82964 12.5743 9.79462 12.5085 9.7444 12.4552C8.78627 11.5534 8.11594 10.3887 7.81757 9.10717C7.79618 9.01801 7.74551 8.93859 7.67367 8.88162C7.60183 8.82464 7.51296 8.79339 7.42127 8.79286H5.22113C4.54282 8.74911 3.86299 8.85072 3.22712 9.09091C2.59126 9.33109 2.01402 9.70431 1.53403 10.1856C1.05405 10.6669 0.682384 11.2451 0.443911 11.8816C0.205437 12.5181 0.105653 13.1982 0.151236 13.8764ZM3.32163 3.65464C3.3209 4.62382 3.70464 5.5537 4.38867 6.24029C5.0727 6.92688 6.00114 7.3141 6.97031 7.31699C7.07143 7.31699 7.17119 7.31699 7.26822 7.30333C7.37405 7.30044 7.47497 7.25802 7.55109 7.18444C7.61474 7.12272 7.6528 7.03928 7.65768 6.95076C7.72822 6.06361 7.97468 5.19939 8.38268 4.40848C8.79069 3.61758 9.35208 2.91582 10.0341 2.34412C10.1066 2.29502 10.1579 2.22034 10.1776 2.13504C10.2033 2.04362 10.193 1.94583 10.1489 1.86173C9.75333 1.1572 9.13516 0.603826 8.3913 0.288359C7.64744 -0.0271081 6.81993 -0.0868393 6.03847 0.118528C5.25701 0.323895 4.56578 0.782751 4.07313 1.42317C3.58048 2.0636 3.31424 2.84939 3.31616 3.65738L3.32163 3.65464Z" fill="black"/>
</svg>
