<svg width="26" height="27" viewBox="0 0 26 27" fill="none" xmlns="http://www.w3.org/2000/svg">
<path d="M23.912 4.60196V7.28229H0.237213V4.60196C0.237213 3.6296 1.02355 2.84326 1.99591 2.84326H22.1533C23.1257 2.84326 23.912 3.6296 23.912 4.60196ZM11.0177 11.9327H13.1315V14.0465H11.0177V11.9327Z" fill="black"/>
<path d="M4.25347 11.9327V14.0465H6.36729V11.9327H4.25347ZM4.25347 11.9327V14.0465H6.36729V11.9327H4.25347ZM0.237213 8.55059V23.0683C0.237213 24.0407 1.02355 24.827 1.99591 24.827H15.1777C14.53 23.818 14.1866 22.6439 14.1884 21.4449C14.1884 17.9444 17.0294 15.1034 20.5299 15.1034C21.7728 15.1034 22.9397 15.467 23.912 16.0927V8.55059H0.237213ZM7.63559 21.4449C7.63559 21.7916 7.34811 22.079 7.00144 22.079H3.61933C3.27266 22.079 2.98518 21.7916 2.98518 21.4449V18.0628C2.98518 17.7161 3.27266 17.4286 3.61933 17.4286H7.00144C7.34811 17.4286 7.63559 17.7161 7.63559 18.0628V21.4449ZM7.63559 14.6807C7.63559 15.0273 7.34811 15.3148 7.00144 15.3148H3.61933C3.27266 15.3148 2.98518 15.0273 2.98518 14.6807V11.2986C2.98518 10.9519 3.27266 10.6644 3.61933 10.6644H7.00144C7.34811 10.6644 7.63559 10.9519 7.63559 11.2986V14.6807ZM14.3998 14.6807C14.3998 15.0273 14.1123 15.3148 13.7657 15.3148H10.3836C10.0369 15.3148 9.74941 15.0273 9.74941 14.6807V11.2986C9.74941 10.9519 10.0369 10.6644 10.3836 10.6644H13.7657C14.1123 10.6644 14.3998 10.9519 14.3998 11.2986V14.6807ZM4.25347 20.8107H6.36729V18.6969H4.25347V20.8107ZM4.25347 14.0465H6.36729V11.9327H4.25347V14.0465ZM12.0746 5.16847C11.9064 5.16847 11.7451 5.10166 11.6262 4.98274C11.5073 4.86381 11.4405 4.70251 11.4405 4.53433V1.15221C11.4405 0.984027 11.5073 0.822729 11.6262 0.703804C11.7451 0.584878 11.9064 0.518066 12.0746 0.518066C12.2428 0.518066 12.4041 0.584878 12.523 0.703804C12.6419 0.822729 12.7088 0.984027 12.7088 1.15221V4.53433C12.7088 4.70251 12.6419 4.86381 12.523 4.98274C12.4041 5.10166 12.2428 5.16847 12.0746 5.16847ZM3.61933 5.16847C3.45114 5.16847 3.28984 5.10166 3.17092 4.98274C3.05199 4.86381 2.98518 4.70251 2.98518 4.53433V1.15221C2.98518 0.984027 3.05199 0.822729 3.17092 0.703804C3.28984 0.584878 3.45114 0.518066 3.61933 0.518066C3.78751 0.518066 3.94881 0.584878 4.06774 0.703804C4.18666 0.822729 4.25347 0.984027 4.25347 1.15221V4.53433C4.25347 4.70251 4.18666 4.86381 4.06774 4.98274C3.94881 5.10166 3.78751 5.16847 3.61933 5.16847ZM20.5299 5.16847C20.3617 5.16847 20.2004 5.10166 20.0815 4.98274C19.9626 4.86381 19.8958 4.70251 19.8958 4.53433V1.15221C19.8958 0.984027 19.9626 0.822729 20.0815 0.703804C20.2004 0.584878 20.3617 0.518066 20.5299 0.518066C20.6981 0.518066 20.8594 0.584878 20.9783 0.703804C21.0972 0.822729 21.164 0.984027 21.164 1.15221V4.53433C21.164 4.70251 21.0972 4.86381 20.9783 4.98274C20.8594 5.10166 20.6981 5.16847 20.5299 5.16847Z" fill="black"/>
<path d="M20.5299 16.3716C17.7312 16.3716 15.4567 18.6461 15.4567 21.4448C15.4567 24.2435 17.7312 26.5179 20.5299 26.5179C23.3286 26.5179 25.6031 24.2435 25.6031 21.4448C25.6031 18.6461 23.3286 16.3716 20.5299 16.3716ZM22.221 22.0789H20.5299C20.1832 22.0789 19.8958 21.7914 19.8958 21.4448V18.9082C19.8958 18.5615 20.1832 18.274 20.5299 18.274C20.8766 18.274 21.164 18.5615 21.164 18.9082V20.8106H22.221C22.5676 20.8106 22.8551 21.0981 22.8551 21.4448C22.8551 21.7914 22.5676 22.0789 22.221 22.0789Z" fill="black"/>
</svg>
