<svg xmlns="http://www.w3.org/2000/svg" version="1.1" xmlns:xlink="http://www.w3.org/1999/xlink" width="512" height="512" x="0" y="0" viewBox="0 0 505.766 505.766" style="enable-background:new 0 0 512 512" xml:space="preserve"><g><path fill="#fc6dae" d="m195.553 310.213-35.038-49.94-52.961-38.059a385823.68 385823.68 0 0 0-11.667 30.759l33.272 46.633 45.181 31.82 21.212-2.32zM131.913 373.853l-21.213-33.58-38.148-25.781-11.667 30.759 19.373 32.689 30.442 17.126h16.792z" opacity="1" data-original="#fc6dae"></path><path fill="#f73d7f" d="m174.34 331.426 32.486 44.847 45.967 33.605 30.759-11.667-38.726-48.605-49.273-39.393-21.213 21.213zM110.7 395.066l18.126 28.874 31.689 20.941 30.759-11.667-25.448-35.002-33.913-24.359-21.213 21.213z" opacity="1" data-original="#f73d7f"></path><path fill="#ffd92e" d="m227.372 278.393-42.426-56.179-59.891-46.14-17.501 46.14 87.999 87.999 22.273-8.273z" opacity="1" data-original="#ffd92e"></path><path fill="#fcbe00" d="m195.553 310.213 87.999 87.999 46.138-17.501-46.138-58.104-56.179-44.213a477295.423 477295.423 0 0 0-31.82 31.819z" opacity="1" data-original="#fcbe00"></path><path fill="#c6ea4b" d="M216.765 225.36h-21.212v-21.213a530346.87 530346.87 0 0 0 42.426-42.427c16.998-16.998 26.361-39.599 26.361-63.64 0-24.039-9.362-46.64-26.361-63.639l21.213-21.213c46.71 46.709 47.088 122.617 0 169.706l-26.517 26.516z" opacity="1" data-original="#c6ea4b"></path><path fill="#55c8ff" d="M301.618 310.213h-21.213V289l42.427-42.427c22.664-22.664 52.798-35.147 84.852-35.147 32.052 0 62.187 12.481 84.853 35.147l-21.213 21.213c-17.546-17.545-40.593-26.318-63.64-26.318s-46.093 8.773-63.639 26.318l-42.427 42.427z" opacity="1" data-original="#55c8ff"></path><path fill="#84dfff" d="M146.159 44.606h30v30h-30zM176.159 104.606h30v30h-30z" opacity="1" data-original="#84dfff"></path><path fill="#92e200" d="M386.159 284.606h30v30h-30zM446.159 374.606h-30v-30h30z" opacity="1" data-original="#92e200"></path><path fill="#55c8ff" d="M446.159 134.606h30v30h-30z" opacity="1" data-original="#55c8ff"></path><path fill="#c6ea4b" d="M326.159 14.606h30v30h-30z" opacity="1" data-original="#c6ea4b"></path><path fill="#fc6dae" d="m388.352 117.414 31.807-21.308 24.314-34.813c2.246-11.902 10.82-20.401 22.628-22.627l22.559-12.06 5.5-16L484.553 0c-14.427 14.426-30.453 2.167-53.516 25.231-18.46 18.459-15.059 35.083-19.239 45.057-2.396 5.72-8.726 12.05-14.449 14.449-7.142 2.994-17.103 2.066-29.089 7.749-11.395 5.403-22.061 16.065-27.466 27.466-8.238 17.375-2.093 25.898-13.741 37.548l10.606 10.606 14.031-5.5 14.031-22.561c2.256-11.961 10.687-20.378 22.631-22.631z" opacity="1" data-original="#fc6dae"></path><path fill="#fcbe00" d="M248.585 257.181 136.722 145.317l-11.667 30.758 102.317 102.318 19.547-1.666z" opacity="1" data-original="#fcbe00"></path><path fill="#ffd92e" d="M60.885 345.251 0 505.766l60.885-47.159 49.815-63.54-49.815-49.816zM174.34 331.426l-78.453-78.453-23.335 61.519 59.361 59.361 28.602-14.247z" opacity="1" data-original="#ffd92e"></path><g fill="#f73d7f"><path d="M427.02 99.958c12.69-12.69 14.37-22.33 17.452-38.665l-56.12 56.121c15.387-2.903 25.556-4.343 38.668-17.456zM505.766 21.213 495.16 10.607l-28.059 28.06c10.213-1.928 23.777-2.566 38.665-17.454zM365.721 140.045c-9.815 9.814-18.247 18.248-28.062 28.061l10.606 10.607c14.392-14.392 15.27-27.086 17.456-38.668z" fill="#f73d7f" opacity="1" data-original="#f73d7f"></path></g><path fill="#ff9000" d="m329.689 380.711 30.759-11.667-111.863-111.863-21.213 21.213 102.317 102.317z" opacity="1" data-original="#ff9000"></path><path fill="#fcbe00" d="M110.7 395.066 0 505.766l160.515-60.885-49.815-49.815zM131.913 373.853l59.361 59.361 61.519-23.335-78.453-78.453-42.427 42.427z" opacity="1" data-original="#fcbe00"></path></g></svg>