<svg width="26" height="26" viewBox="0 0 26 26" fill="none" xmlns="http://www.w3.org/2000/svg">
<path d="M13 -0.00146484C5.82058 -0.00146484 0 5.81911 0 12.9985C0 20.178 5.82058 25.9985 13 25.9985C20.1794 25.9985 26 20.178 26 12.9985C26 5.81911 20.1794 -0.00146484 13 -0.00146484ZM16.7342 18.1236C16.1671 18.8138 15.4288 19.2792 14.5675 19.5146C14.193 19.6162 14.0218 19.8142 14.0432 20.2047C14.0593 20.5899 14.0432 20.9697 14.0379 21.3549C14.0379 21.6973 13.8613 21.8792 13.5243 21.8899C13.3049 21.8952 13.0856 21.9006 12.8663 21.9006C12.6737 21.9006 12.4811 21.9006 12.2885 21.8952C11.9247 21.8899 11.7535 21.6813 11.7535 21.3282C11.7481 21.05 11.7481 20.7664 11.7481 20.4882C11.7428 19.8677 11.7214 19.8463 11.1276 19.75C10.3679 19.6269 9.61893 19.4557 8.92346 19.1187C8.37778 18.8512 8.31893 18.7175 8.47407 18.1397C8.59177 17.7117 8.70947 17.2837 8.84321 16.8611C8.93951 16.5508 9.03045 16.4117 9.1963 16.4117C9.29259 16.4117 9.41564 16.4599 9.58148 16.5454C10.3519 16.9467 11.1704 17.1714 12.0317 17.2784C12.1761 17.2944 12.3206 17.3051 12.465 17.3051C12.8663 17.3051 13.2568 17.2302 13.6366 17.0644C14.5942 16.6471 14.744 15.5397 13.9362 14.8763C13.6634 14.6516 13.3477 14.4858 13.0214 14.3413C12.1815 13.9722 11.3095 13.694 10.5177 13.2179C9.23375 12.4475 8.42058 11.3936 8.51687 9.83146C8.62387 8.06603 9.62428 6.96397 11.2453 6.37549C11.914 6.13475 11.9193 6.1401 11.9193 5.44463C11.9193 5.20924 11.914 4.97384 11.9247 4.7331C11.9407 4.20882 12.0263 4.11788 12.5506 4.10183H13.1605C14.1556 4.10183 14.1556 4.14463 14.1609 5.21993C14.1663 6.0117 14.1663 6.0117 14.9527 6.13475C15.5572 6.23105 16.1296 6.40759 16.686 6.65368C16.9909 6.78742 17.1086 7.00142 17.0123 7.32775C16.8733 7.80924 16.7395 8.29607 16.5897 8.7722C16.4934 9.06109 16.4025 9.19483 16.2313 9.19483C16.135 9.19483 16.0173 9.15738 15.8675 9.08249C15.0971 8.708 14.2893 8.52611 13.444 8.52611C13.337 8.52611 13.2247 8.53146 13.1177 8.53681C12.8663 8.55286 12.6202 8.58496 12.3848 8.6866C11.5502 9.05039 11.4165 9.97055 12.128 10.5376C12.4864 10.8265 12.8984 11.0298 13.321 11.2064C14.0593 11.5113 14.7975 11.8055 15.4984 12.1907C17.7025 13.4212 18.3016 16.2191 16.7342 18.1236Z" fill="black"/>
</svg>
