<svg width="26" height="27" viewBox="0 0 26 27" fill="none" xmlns="http://www.w3.org/2000/svg">
<path d="M25.3016 11.8265L25.2998 11.8247L14.6928 1.21811C14.2406 0.765709 13.6395 0.516602 13.0002 0.516602C12.3608 0.516602 11.7597 0.765557 11.3074 1.21791L0.705844 11.8191C0.702289 11.8227 0.698734 11.8264 0.695179 11.83C-0.233298 12.7638 -0.231673 14.2789 0.69975 15.2103C1.12524 15.636 1.68729 15.8826 2.2882 15.9084C2.31257 15.9108 2.33721 15.9119 2.36199 15.9119H2.78474V23.7178C2.78474 25.2625 4.0415 26.5193 5.58652 26.5193H9.73628C10.1569 26.5193 10.4981 26.1782 10.4981 25.7575V19.6377C10.4981 18.9328 11.0715 18.3595 11.7763 18.3595H14.224C14.9289 18.3595 15.5022 18.9329 15.5022 19.6377V25.7575C15.5022 26.1782 15.8432 26.5193 16.264 26.5193H20.4138C21.9588 26.5193 23.2156 25.2625 23.2156 23.7179V15.912H23.6076C24.2468 15.912 24.8479 15.663 25.3004 15.2107C26.2328 14.2777 26.2332 12.7601 25.3016 11.8265Z" fill="black"/>
</svg>
