<svg width="27" height="27" viewBox="0 0 27 27" fill="none" xmlns="http://www.w3.org/2000/svg">
<path d="M13.6302 13.5181C11.8427 13.5181 10.3125 12.8816 9.03956 11.6087C7.76665 10.3358 7.13019 8.80557 7.13019 7.01807C7.13019 5.23057 7.76665 3.70036 9.03956 2.42744C10.3125 1.15452 11.8427 0.518066 13.6302 0.518066C15.4177 0.518066 16.9479 1.15452 18.2208 2.42744C19.4937 3.70036 20.1302 5.23057 20.1302 7.01807C20.1302 8.80557 19.4937 10.3358 18.2208 11.6087C16.9479 12.8816 15.4177 13.5181 13.6302 13.5181ZM0.630188 26.5181V21.9681C0.630188 21.0472 0.867167 20.2009 1.34113 19.429C1.81508 18.6571 2.44477 18.0681 3.23019 17.6618C4.90935 16.8222 6.6156 16.1925 8.34894 15.7728C10.0823 15.353 11.8427 15.1431 13.6302 15.1431C15.4177 15.1431 17.1781 15.353 18.9114 15.7728C20.6448 16.1925 22.351 16.8222 24.0302 17.6618C24.8156 18.0681 25.4453 18.6571 25.9193 19.429C26.3932 20.2009 26.6302 21.0472 26.6302 21.9681V26.5181H0.630188ZM3.88019 23.2681H23.3802V21.9681C23.3802 21.6701 23.3057 21.3993 23.1568 21.1556C23.0078 20.9118 22.8114 20.7222 22.5677 20.5868C21.1052 19.8556 19.6291 19.3071 18.1396 18.9415C16.65 18.5759 15.1469 18.3931 13.6302 18.3931C12.1135 18.3931 10.6104 18.5759 9.12081 18.9415C7.63123 19.3071 6.15519 19.8556 4.69269 20.5868C4.44894 20.7222 4.25258 20.9118 4.10363 21.1556C3.95467 21.3993 3.88019 21.6701 3.88019 21.9681V23.2681ZM13.6302 10.2681C14.5239 10.2681 15.289 9.94984 15.9255 9.31338C16.562 8.67692 16.8802 7.91182 16.8802 7.01807C16.8802 6.12432 16.562 5.35921 15.9255 4.72275C15.289 4.0863 14.5239 3.76807 13.6302 3.76807C12.7364 3.76807 11.9713 4.0863 11.3349 4.72275C10.6984 5.35921 10.3802 6.12432 10.3802 7.01807C10.3802 7.91182 10.6984 8.67692 11.3349 9.31338C11.9713 9.94984 12.7364 10.2681 13.6302 10.2681Z" fill="black"/>
</svg>
