<svg width="27" height="27" viewBox="0 0 27 27" fill="none" xmlns="http://www.w3.org/2000/svg">
<path d="M10.6759 21.4387C13.0001 21.4387 15.2579 20.6632 17.0916 19.235L24.0095 26.1529C24.5263 26.652 25.3498 26.6377 25.8489 26.1209C26.3357 25.6168 26.3357 24.8176 25.8489 24.3135L18.931 17.3956C22.475 12.8335 21.6497 6.26222 17.0876 2.7182C12.5255 -0.825826 5.95424 -0.000545263 2.41021 4.56157C-1.13381 9.12369 -0.308529 15.695 4.25359 19.239C6.09026 20.6659 8.35009 21.4398 10.6759 21.4387ZM5.11741 5.42139C8.18729 2.35145 13.1646 2.35139 16.2345 5.42128C19.3044 8.49116 19.3045 13.4684 16.2346 16.5384C13.1647 19.6083 8.18746 19.6084 5.11752 16.5385L5.11741 16.5384C2.04752 13.4909 2.02944 8.53173 5.07695 5.46185L5.11741 5.42139Z" fill="black"/>
</svg>
